# xmcd
#
# Track frame offsets:
#	150
#	10789
#	25813
#	42772
#	58242
#	77891
#	92127
#	109527
#	123612
#	142795
#	160088
#	172559
#	193328
#
# Disc length: 2798 seconds
#
# Revision: 2
# Processed by: cddbd v1.5.2PL0 Copyright (c) Steve Scherf et al.
# Submitted via: EasyCDDAExtractor 12.0.0.1
#
DISCID=9d0aec0d
DTITLE=Various Artist - Simply Musicals CD2
DYEAR=2004
DGENRE=Musical
TTITLE0=Chitty Chitty Bang Bang - Chitty Chitty Bang Bang
TTITLE1=Saturday Night Fever - What Kind Of Fool
TTITLE2=Cats - Memory
TTITLE3=Chess - Anthem
TTITLE4=The Phantom Of The Opera - The Phantom Of The Opera
TTITLE5=Stop The World I Want To Get Off - What Kind Of Fool Am I?
TTITLE6=Mamma Mia - Dancing Queen
TTITLE7=Miss Saigon - Sun And Moon
TTITLE8=Anything Goes - Anything Goes
TTITLE9=Oliver! - As Long As He Needs Me
TTITLE10=Les Miserables - The People's Song
TTITLE11=The Rocky Horror Show - The Time Warp
TTITLE12=We Will Rock You - We Are The Champions
EXTD=
EXTT0=
EXTT1=
EXTT2=
EXTT3=
EXTT4=
EXTT5=
EXTT6=
EXTT7=
EXTT8=
EXTT9=
EXTT10=
EXTT11=
EXTT12=
PLAYORDER=
